<svg viewBox="0 0 24 24" fill="none" xmlns="http://www.w3.org/2000/svg" data-seed-icon="true" data-seed-icon-asset-version="0.0.13" data-seed-icon-react-version="0.0.17" width="24" height="24"><g><g><path d="M13.7157 6.66349C13.7157 5.11738 14.9653 3.86786 16.5113 3.86786C18.0573 3.86786 19.3069 5.11738 19.3069 6.66349C19.3069 8.2096 18.0573 9.45912 16.5113 9.45912C14.9653 9.45912 13.7157 8.2096 13.7157 6.66349Z" fill="#FF9000"></path><path d="M9.47138 13.386C9.62459 13.4132 9.77816 13.4388 9.93208 13.4627L11.4244 19.9998C10.9879 20.114 10.6658 20.511 10.6658 20.9833C10.6658 21.5448 11.1209 21.9999 11.6824 21.9999H19.8151C20.1402 21.9999 20.4457 21.8445 20.637 21.5817C20.8283 21.3189 20.8824 20.9804 20.7826 20.6711L19.7941 16.0883L19.8152 16.067C19.9325 15.949 20.0257 15.8567 20.124 15.7594C20.2597 15.625 20.4051 15.481 20.637 15.2465C20.9741 14.9057 21.3663 14.5177 21.7319 14.1562C22.2253 13.6681 22.6701 13.2282 22.865 13.0172C23.3733 12.467 23.8674 11.1429 23.1122 10.3038C22.7172 9.86512 22.2015 9.62451 21.6269 9.60187C21.0922 9.5808 20.577 9.75006 20.1197 9.9808C16.7048 11.704 13.2042 11.9841 9.82704 11.3841C9.27425 11.2859 8.7465 11.6544 8.64829 12.2072C8.55008 12.76 8.91859 13.2878 9.47138 13.386Z" fill="#FF9000"></path></g><g><path d="M5.71873 5.49425C5.71873 3.57912 7.26003 2.03809 9.17515 2.03809C11.0903 2.03809 12.6316 3.57912 12.6316 5.49425C12.6316 7.41152 11.0774 8.95041 9.17515 8.95041C7.26003 8.95041 5.71873 7.40937 5.71873 5.49425Z" fill="#FF6F0F"></path><path d="M3.11637 7.61723C3.67553 7.79906 4.1778 8.18089 4.60847 8.6354C5.86861 9.96533 7.45852 10.9642 10.6659 11.4922C12.0986 11.7281 13.0352 11.7829 13.9918 11.8008L14.1631 11.8039C14.5662 11.811 14.9476 11.8178 15.2483 11.8427C15.4211 11.857 15.6146 11.8805 15.7971 11.9285C15.9489 11.9683 16.2414 12.061 16.4802 12.3106C16.769 12.6053 16.9761 13.0241 16.918 13.5221C16.8663 13.9655 16.6217 14.2936 16.429 14.4975C16.0479 14.9006 15.47 15.2298 14.9808 15.4797C14.5798 15.6846 14.1395 15.8837 13.7566 16.0569C13.6488 16.1056 13.5449 16.1526 13.4483 16.1968C13.2863 16.2709 13.1433 16.3378 13.0205 16.3984V20.9834C13.0205 21.5449 12.5654 22 12.0039 22H3.64382C3.32258 22 3.02025 21.8482 2.82841 21.5905C2.63657 21.3328 2.5778 20.9997 2.66992 20.6919L3.83253 15.9585L2.62113 13.921C1.88853 12.6889 1.13603 11.4238 1.04472 11.2719C0.744144 10.7718 0.527346 10.1917 0.502307 9.61304C0.476755 9.02247 0.658724 8.32677 1.28655 7.87485C1.85703 7.46449 2.5196 7.42317 3.11637 7.61723Z" fill="#FF6F0F"></path></g></g></svg>