<svg viewBox="0 0 24 24" fill="none" xmlns="http://www.w3.org/2000/svg" data-seed-icon="true" data-seed-icon-asset-version="0.0.13" data-seed-icon-react-version="0.0.17" width="24" height="24"><g><g><path d="M1.59759 8.09C0.968323 7.87337 0.282588 8.20788 0.065956 8.83714C-0.150676 9.46641 0.183829 10.1521 0.813094 10.3688C1.45735 10.5906 2.09511 10.7785 2.70445 10.9511C3.34476 11.1325 4.0109 10.7605 4.19232 10.1202C4.37374 9.47991 4.00174 8.81377 3.36143 8.63235C2.76576 8.46358 2.17843 8.28997 1.59759 8.09Z" fill="#126BE0"></path><path d="M23.9397 8.85396C24.147 9.48635 23.8025 10.1671 23.1701 10.3744C22.551 10.5774 21.9309 10.7739 21.3056 10.9511C20.6653 11.1325 19.9991 10.7605 19.8177 10.1202C19.6363 9.47991 20.0083 8.81377 20.6486 8.63235C21.2283 8.4681 21.8132 8.28305 22.4192 8.08435C23.0516 7.87701 23.7324 8.22158 23.9397 8.85396Z" fill="#126BE0"></path><path d="M2.68287 16.8355C2.66853 16.2811 2.20747 15.8433 1.65307 15.8576C1.09866 15.8719 0.66085 16.333 0.675188 16.8874C0.707223 18.1261 0.878102 19.3401 1.18134 20.4664C1.28136 20.8379 1.58486 21.1196 1.96277 21.1917L6.12006 21.985C6.41405 22.0411 6.71774 21.9632 6.94835 21.7724C7.17896 21.5816 7.31246 21.2979 7.31246 20.9986V17.8757C7.31246 17.3211 6.86288 16.8715 6.30829 16.8715C5.82748 16.8715 5.42559 17.2094 5.32717 17.6607L2.6914 17.0832C2.68786 17.0009 2.68501 16.9183 2.68287 16.8355Z" fill="#126BE0"></path><path d="M21.3216 17.0832C21.3251 17.0009 21.3279 16.9183 21.3301 16.8355C21.3444 16.2811 21.8055 15.8433 22.3599 15.8576C22.9143 15.8719 23.3521 16.333 23.3378 16.8874C23.3057 18.1261 23.1349 19.3401 22.8316 20.4664C22.7316 20.8379 22.4281 21.1196 22.0502 21.1917L17.8929 21.985C17.5989 22.0411 17.2952 21.9632 17.0646 21.7724C16.834 21.5816 16.7005 21.2979 16.7005 20.9986V17.8757C16.7005 17.3211 17.1501 16.8715 17.7047 16.8715C18.1855 16.8715 18.5874 17.2094 18.6858 17.6607L21.3216 17.0832Z" fill="#126BE0"></path></g><path fill-rule="evenodd" clip-rule="evenodd" d="M2.01535 9.60315C2.02977 9.56388 2.04637 9.52498 2.06519 9.48659L4.54039 4.43914L4.5413 4.43728C5.09673 3.29738 6.25013 2.5957 7.49862 2.5957H16.3862C17.6441 2.5957 18.7774 3.3049 19.3386 4.4274L19.3415 4.43321L21.5921 8.99582L21.9141 9.78794C22.575 11.7837 23.4131 14.2718 23.3392 16.8895C23.3271 17.3177 23.0448 17.691 22.6361 17.8193L22.3354 16.8612C22.6361 17.8193 22.6361 17.8193 22.6361 17.8193L22.6301 17.8212L22.6173 17.8251L22.5719 17.839C22.5328 17.8508 22.4763 17.8675 22.4034 17.8886C22.2576 17.9306 22.0458 17.9898 21.775 18.0604C21.2336 18.2015 20.4555 18.3884 19.4972 18.5749C17.5836 18.9474 14.9362 19.3214 12.0125 19.3214C9.08885 19.3214 6.43659 18.9474 4.51827 18.575C3.55757 18.3885 2.77704 18.2017 2.23389 18.0606C1.96222 17.9901 1.74967 17.9309 1.60336 17.8889C1.53019 17.8678 1.47357 17.8511 1.43438 17.8393L1.38877 17.8255L1.37597 17.8215L1.37081 17.8199L1.37107 17.8171C1.37027 17.8198 1.37081 17.8199 1.37081 17.8199C0.902751 17.6737 0.617034 17.2161 0.67171 16.7462C0.612678 14.275 1.07643 11.6809 2.01535 9.60315ZM6.70757 5.49345C6.85183 5.1969 7.15483 5.00573 7.49862 5.00573H16.3862C16.7204 5.00573 17.024 5.18924 17.1818 5.50287L17.183 5.50519L19.0335 9.25661C16.6734 9.80368 14.3354 10.0849 12.0025 10.093C9.64258 10.0848 7.27075 9.79514 4.87442 9.23164L6.70591 5.49686L6.70757 5.49345Z" fill="#318EFF"></path><g><path d="M18.9881 15.0397C19.5346 14.9455 19.9013 14.426 19.807 13.8795C19.7128 13.333 19.1934 12.9663 18.6468 13.0605L17.1908 13.3116C16.6443 13.4058 16.2776 13.9253 16.3718 14.4718C16.4661 15.0183 16.9855 15.385 17.532 15.2907L18.9881 15.0397Z" fill="white"></path><path d="M5.34073 13.0605C4.7942 12.9663 4.27476 13.333 4.18054 13.8795C4.08631 14.426 4.45297 14.9455 4.9995 15.0397L6.45555 15.2907C7.00208 15.385 7.52152 15.0183 7.61575 14.4718C7.70998 13.9253 7.34331 13.4058 6.79679 13.3116L5.34073 13.0605Z" fill="white"></path></g></g></svg>