<svg viewBox="0 0 24 24" fill="none" xmlns="http://www.w3.org/2000/svg" data-seed-icon="true" data-seed-icon-asset-version="0.0.13" data-seed-icon-react-version="0.0.17" width="24" height="24"><g><g><path d="M11.1086 5.34729C9.0989 5.34729 7.45435 6.96639 7.45435 8.9726C7.45435 10.9788 9.0989 12.5979 11.1086 12.5979C13.1183 12.5979 14.7629 10.9788 14.7629 8.9726C14.7629 6.96639 13.1183 5.34729 11.1086 5.34729Z" fill="#FF9000"></path><path d="M11.099 13.7098C9.49594 13.7098 7.9959 14.028 6.78419 14.5892C5.58866 15.1429 4.58221 15.9794 4.13535 17.0739C4.04758 17.2889 4.04938 17.53 4.14035 17.7437C4.23132 17.9573 4.4039 18.1257 4.6197 18.2114L10.7778 20.6573C10.9837 20.7391 11.213 20.7393 11.419 20.6578L17.5771 18.2215C17.793 18.1362 17.9657 17.9681 18.057 17.7547C18.1483 17.5413 18.1506 17.3003 18.0633 17.0853C17.617 15.9858 16.6109 15.1462 15.4145 14.5907C14.2023 14.0279 12.702 13.7098 11.099 13.7098Z" fill="#FF9000"></path></g><path fill-rule="evenodd" clip-rule="evenodd" d="M11.1188 21.0184C5.6978 21.0184 1.29636 16.6698 1.211 11.2691C1.2038 11.2169 1.20007 11.1635 1.20007 11.1092C1.20007 5.63481 5.63473 1.20007 11.1091 1.20007C16.5835 1.20007 21.0182 5.63481 21.0182 11.1092C21.0182 13.1456 20.4039 15.0322 19.3584 16.6017L22.2405 19.4837C23.0001 20.2434 23.0001 21.4806 22.2405 22.2402C21.4808 22.9999 20.2436 22.9999 19.484 22.2402L16.6035 19.3598C15.0349 20.4034 13.1449 21.0184 11.1188 21.0184ZM15.9792 16.9348C14.6645 18.0317 12.9651 18.6982 11.1188 18.6982C6.92583 18.6982 3.52992 15.3023 3.52992 11.1092C3.52992 11.0618 3.52707 11.0149 3.52152 10.9689C3.59627 6.84069 6.96303 3.52026 11.1091 3.52026C15.3021 3.52026 18.698 6.91618 18.698 11.1092C18.698 12.9688 18.0307 14.6659 16.926 15.9861C16.8832 16.0202 16.842 16.0569 16.8024 16.0965C16.7226 16.1763 16.6541 16.2631 16.5968 16.3549C16.5191 16.4364 16.4397 16.5163 16.3585 16.5944C16.2654 16.6522 16.1775 16.7214 16.0967 16.8022C16.0544 16.8445 16.0152 16.8888 15.9792 16.9348Z" fill="#FF6F0F"></path></g></svg>