<svg viewBox="0 0 24 24" fill="none" xmlns="http://www.w3.org/2000/svg" data-seed-icon="true" data-seed-icon-asset-version="0.0.13" data-seed-icon-react-version="0.0.17" width="24" height="24"><g><path d="M9.84309 4.75124C9.36967 4.95223 9.14891 5.49889 9.35001 5.97226L12.2977 12.9108C12.4988 13.3841 13.0456 13.6049 13.519 13.404L20.0229 10.6428C20.4963 10.4419 20.7171 9.89519 20.516 9.42182L17.5683 2.48332C17.3672 2.00995 16.8204 1.78915 16.347 1.99013L9.84309 4.75124Z" fill="#FFCB64"></path><path d="M9.05747 1.83844C6.05398 1.83844 3.61865 4.27248 3.61865 7.27567C3.61865 10.2789 6.05398 12.7129 9.05747 12.7129C12.061 12.7129 14.4963 10.2789 14.4963 7.27567C14.4963 4.27248 12.061 1.83844 9.05747 1.83844Z" fill="#FF9F30"></path><path d="M21.9145 8.60293C21.8823 8.58775 21.8374 8.56718 21.7801 8.54198C21.6653 8.49159 21.5003 8.42273 21.2851 8.34172C20.8546 8.17969 20.2233 7.96909 19.3914 7.76034C17.7269 7.34266 15.2625 6.93323 12 6.93323C8.73747 6.93323 6.27312 7.34266 4.60861 7.76034C3.77667 7.96909 3.14541 8.17969 2.71491 8.34172C2.49968 8.42273 2.33469 8.49159 2.21993 8.54198C2.16255 8.56718 2.11774 8.58775 2.08549 8.60293L2.02642 8.63145C1.66197 8.81435 1.45396 9.20856 1.50867 9.61263L2.87759 19.7227C3.06674 21.1197 4.25943 22.1617 5.66918 22.1617H18.3245C19.7336 22.1617 20.926 21.1206 21.1159 19.7244L22.4913 9.61321C22.5462 9.20895 22.3382 8.81444 21.9736 8.63145L21.9145 8.60293Z" fill="#FF6F0F"></path><path fill-rule="evenodd" clip-rule="evenodd" d="M9.01721 10.0162C9.5695 10.0162 10.0172 10.464 10.0172 11.0162V12.0132C10.0172 13.1106 10.9055 14.0043 12.0172 14.0162C13.1263 14.0043 14.0172 13.1012 14.0172 12.0132V11.0162C14.0172 10.464 14.4649 10.0162 15.0172 10.0162C15.5695 10.0162 16.0172 10.464 16.0172 11.0162V12.0132C16.0172 14.2142 14.224 16.0003 12.0245 16.0162H12.01C9.81301 16.0003 8.01721 14.2288 8.01721 12.0132V11.0162C8.01721 10.464 8.46493 10.0162 9.01721 10.0162Z" fill="white"></path></g></svg>