<svg viewBox="0 0 24 24" fill="none" xmlns="http://www.w3.org/2000/svg" data-seed-icon="true" data-seed-icon-asset-version="0.0.13" data-seed-icon-react-version="0.0.17" width="24" height="24"><g><path d="M13.471 1.91589C12.5651 1.36111 11.4246 1.36139 10.519 1.91661L2.46422 6.85498C2.16026 7.04134 1.97498 7.37227 1.97498 7.72882V19.475C1.97498 21.1457 3.32931 22.5 4.99998 22.5H19C20.6706 22.5 22.025 21.1457 22.025 19.475V7.72882C22.025 7.37209 21.8395 7.04102 21.5353 6.85471L13.471 1.91589Z" fill="#DF5BC2"></path><path fill-rule="evenodd" clip-rule="evenodd" d="M12.3146 3.98882C12.1229 3.87042 11.8808 3.86982 11.6859 3.99047L2.13157 9.90472C1.56805 10.2535 0.828457 10.0795 0.479635 9.51598C0.130813 8.95246 0.304857 8.21287 0.868372 7.86404L10.4227 1.9498C11.3876 1.35252 12.6073 1.34853 13.576 1.9471C15.6085 3.20288 20.4335 6.18535 23.1339 7.86549C23.6966 8.21561 23.869 8.9556 23.5189 9.51831C23.1687 10.081 22.4288 10.2534 21.866 9.90327C19.1694 8.22548 14.3478 5.24509 12.3146 3.98882Z" fill="#CC25A8"></path><g><path d="M8.80078 10C8.38657 10 8.05078 10.3358 8.05078 10.75V11.75C8.05078 12.1642 8.38657 12.5 8.80078 12.5H9.80078C10.215 12.5 10.5508 12.1642 10.5508 11.75V10.75C10.5508 10.3358 10.215 10 9.80078 10H8.80078Z" fill="white"></path><path d="M14.1992 10C13.785 10 13.4492 10.3358 13.4492 10.75V11.75C13.4492 12.1642 13.785 12.5 14.1992 12.5H15.1992C15.6134 12.5 15.9492 12.1642 15.9492 11.75V10.75C15.9492 10.3358 15.6134 10 15.1992 10H14.1992Z" fill="white"></path><path d="M14.1992 15.3994C13.785 15.3994 13.4492 15.7352 13.4492 16.1494V17.1494C13.4492 17.5636 13.785 17.8994 14.1992 17.8994H15.1992C15.6134 17.8994 15.9492 17.5636 15.9492 17.1494V16.1494C15.9492 15.7352 15.6134 15.3994 15.1992 15.3994H14.1992Z" fill="white"></path><path d="M8.80078 15.3994C8.38657 15.3994 8.05078 15.7352 8.05078 16.1494V17.1494C8.05078 17.5636 8.38657 17.8994 8.80078 17.8994H9.80078C10.215 17.8994 10.5508 17.5636 10.5508 17.1494V16.1494C10.5508 15.7352 10.215 15.3994 9.80078 15.3994H8.80078Z" fill="white"></path></g></g></svg>