<svg viewBox="0 0 24 24" fill="none" xmlns="http://www.w3.org/2000/svg" data-seed-icon="true" data-seed-icon-asset-version="0.0.13" data-seed-icon-react-version="0.0.17" width="24" height="24"><g><path d="M3.67495 9.425C3.67495 8.91414 3.26081 8.5 2.74995 8.5C2.23909 8.5 1.82495 8.91414 1.82495 9.425V19.4112C1.82495 21.0327 3.14805 22.3389 4.76136 22.3366C8.91248 22.3307 10.7155 22.3354 12.8927 22.341C14.469 22.3451 16.2415 22.3497 19.2432 22.3511C20.8553 22.3519 22.1749 21.0457 22.1749 19.4266V9.425C22.1749 8.91414 21.7608 8.5 21.25 8.5C20.7391 8.5 20.325 8.91414 20.325 9.425H3.67495Z" fill="#FFAA00"></path><path d="M4.87147 1.80005C3.75963 1.80005 2.76062 2.47927 2.35175 3.5132L0.654074 7.80617C0.543575 8.0856 0.578202 8.40156 0.746595 8.65042L0.774671 8.69073C0.789641 8.7118 0.810213 8.74021 0.83622 8.77493C0.888167 8.84427 0.962199 8.93926 1.05701 9.05135C1.24564 9.27436 1.52184 9.57138 1.87556 9.87009C2.56934 10.456 3.6471 11.1192 4.99992 11.1192C6.35274 11.1192 7.4305 10.456 8.12428 9.87009C8.26133 9.75436 8.38673 9.63888 8.49992 9.52786C8.61311 9.63888 8.73852 9.75436 8.87556 9.87009C9.56934 10.456 10.6471 11.1192 11.9999 11.1192C13.3527 11.1192 14.4305 10.456 15.1243 9.87009C15.2613 9.75436 15.3867 9.63888 15.4999 9.52786C15.6131 9.63888 15.7385 9.75436 15.8756 9.87009C16.5693 10.456 17.6471 11.1192 18.9999 11.1192C20.3527 11.1192 21.4305 10.456 22.1243 9.87009C22.478 9.57138 22.7542 9.27436 22.9428 9.05135C23.0376 8.93926 23.1117 8.84427 23.1636 8.77493C23.1896 8.74021 23.2102 8.7118 23.2252 8.69073L23.2434 8.66471L23.2494 8.65606L23.2516 8.65285L23.2532 8.65042C23.4216 8.40156 23.4563 8.0856 23.3458 7.80617L21.6481 3.5132C21.2392 2.47927 20.2402 1.80005 19.1284 1.80005H4.87147Z" fill="#FFCB64"></path><path d="M8.49992 1.80005C8.25868 1.80005 8.02732 1.89588 7.85674 2.06646C7.68616 2.23705 7.59033 2.4684 7.59033 2.70964L7.5904 8.1407C7.5904 8.32241 7.64483 8.49995 7.74666 8.65044L8.49998 8.14069C7.74666 8.65044 7.74647 8.65017 7.74666 8.65044L7.74742 8.65156L7.74831 8.65287L7.7505 8.65608L7.75646 8.66474L7.77473 8.69075C7.7897 8.71182 7.81027 8.74024 7.83628 8.77495C7.88823 8.84429 7.96226 8.93928 8.05707 9.05137C8.2457 9.27438 8.5219 9.5714 8.87562 9.87011C9.5694 10.456 10.6472 11.1192 12 11.1192C13.3528 11.1192 14.4306 10.456 15.1243 9.87011C15.4781 9.5714 15.7543 9.27438 15.9429 9.05137C16.0377 8.93928 16.1117 8.84429 16.1637 8.77495C16.1897 8.74024 16.2103 8.71182 16.2252 8.69075L16.2435 8.66474L16.2495 8.65608L16.2517 8.65287L16.2525 8.65156C16.2527 8.65129 16.2533 8.65044 15.501 8.14136L16.2533 8.65044C16.3551 8.49994 16.4096 8.32239 16.4096 8.14068L16.4095 2.70962C16.4095 2.20728 16.0023 1.80005 15.4999 1.80005H8.49992Z" fill="#FFE2A0"></path><g><path d="M8.74381 14.75C8.35998 14.75 8.04883 15.0612 8.04883 15.445V16.555C8.04883 16.9388 8.35998 17.25 8.74381 17.25H9.85384C10.2377 17.25 10.5488 16.9388 10.5488 16.555V15.445C10.5488 15.0612 10.2377 14.75 9.85384 14.75H8.74381Z" fill="white"></path><path d="M14.1462 14.75C13.7623 14.75 13.4512 15.0612 13.4512 15.445V16.555C13.4512 16.9388 13.7623 17.25 14.1462 17.25H15.2562C15.64 17.25 15.9512 16.9388 15.9512 16.555V15.445C15.9512 15.0612 15.64 14.75 15.2562 14.75H14.1462Z" fill="white"></path></g></g></svg>