<svg width="24" height="24" viewBox="0 0 24 24" fill="none" xmlns="http://www.w3.org/2000/svg"><path d="M11.6 3.4734C14.4837 3.4734 14.8253 3.48397 15.9641 3.534C17.0171 3.58028 17.5889 3.74971 17.9695 3.89209C18.4736 4.08075 18.8334 4.30616 19.2113 4.67007C19.5892 5.03397 19.8233 5.38046 20.0192 5.86586C20.1671 6.23237 20.343 6.78305 20.3911 7.79699C20.443 8.89367 20.454 9.22257 20.454 11.9995C20.454 14.7764 20.443 15.1053 20.3911 16.202C20.343 17.216 20.1671 17.7666 20.0192 18.1332C19.8233 18.6186 19.5892 18.965 19.2113 19.3289C18.8334 19.6929 18.4736 19.9183 17.9695 20.1069C17.5889 20.2493 17.0171 20.4187 15.9641 20.465C14.8254 20.515 14.4839 20.5256 11.6 20.5256C8.71607 20.5256 8.37452 20.515 7.23588 20.465C6.18289 20.4187 5.61103 20.2493 5.23047 20.1069C4.72636 19.9183 4.36654 19.6929 3.98864 19.3289C3.61073 18.965 3.37666 18.6186 3.18078 18.1332C3.03288 17.7666 2.85694 17.216 2.80888 16.202C2.75692 15.1053 2.74595 14.7764 2.74595 11.9995C2.74595 9.22257 2.75692 8.89367 2.80888 7.79704C2.85694 6.78305 3.03288 6.23237 3.18078 5.86586C3.37666 5.38046 3.61073 5.03397 3.98864 4.67007C4.36654 4.30616 4.72636 4.08075 5.23047 3.89209C5.61103 3.74971 6.18289 3.58028 7.23583 3.534C8.37469 3.48397 8.71624 3.4734 11.6 3.4734ZM11.6 1.59949C8.66686 1.59949 8.29911 1.61146 7.14718 1.66207C5.9976 1.7126 5.21255 1.88838 4.52555 2.14549C3.81535 2.41127 3.21306 2.76688 2.61266 3.34505C2.01226 3.92322 1.64297 4.5032 1.36697 5.18709C1.09997 5.84865 0.917426 6.60462 0.864952 7.71162C0.812393 8.82085 0.800003 9.17502 0.800003 11.9995C0.800003 14.824 0.812393 15.1782 0.864952 16.2874C0.917426 17.3944 1.09997 18.1504 1.36697 18.8119C1.64297 19.4958 2.01226 20.0758 2.61266 20.654C3.21306 21.2321 3.81535 21.5877 4.52555 21.8535C5.21255 22.1106 5.9976 22.2864 7.14718 22.3369C8.29911 22.3876 8.66686 22.3995 11.6 22.3995C14.5331 22.3995 14.9009 22.3876 16.0528 22.3369C17.2024 22.2864 17.9874 22.1106 18.6744 21.8535C19.3846 21.5877 19.9869 21.2321 20.5873 20.654C21.1877 20.0758 21.557 19.4958 21.833 18.8119C22.1 18.1504 22.2825 17.3944 22.335 16.2874C22.3876 15.1782 22.4 14.824 22.4 11.9995C22.4 9.17502 22.3876 8.82085 22.335 7.71162C22.2825 6.60462 22.1 5.84865 21.833 5.18709C21.557 4.5032 21.1877 3.92322 20.5873 3.34505C19.9869 2.76688 19.3846 2.41127 18.6744 2.14549C17.9874 1.88838 17.2024 1.7126 16.0528 1.66207C14.9009 1.61146 14.5331 1.59949 11.6 1.59949ZM11.6 6.65895C8.53704 6.65895 6.05402 9.05001 6.05402 11.9995C6.05402 14.949 8.53704 17.3401 11.6 17.3401C14.6629 17.3401 17.1459 14.949 17.1459 11.9995C17.1459 9.05001 14.6629 6.65895 11.6 6.65895ZM11.6 15.4662C9.61177 15.4662 7.99996 13.9141 7.99996 11.9995C7.99996 10.0849 9.61177 8.53282 11.6 8.53282C13.5882 8.53282 15.2 10.0849 15.2 11.9995C15.2 13.9141 13.5882 15.4662 11.6 15.4662ZM18.661 6.44795C18.661 7.13721 18.0808 7.69598 17.3651 7.69598C16.6493 7.69598 16.069 7.13721 16.069 6.44795C16.069 5.75869 16.6493 5.19997 17.3651 5.19997C18.0808 5.19997 18.661 5.75869 18.661 6.44795Z" fill="currentColor"></path></svg>